<?xml version="1.0" encoding="UTF-8"?>
<svg width="1170px" height="177px" viewBox="0 0 1170 177" version="1.1"
    xmlns="http://www.w3.org/2000/svg"
    xmlns:xlink="http://www.w3.org/1999/xlink">
    <title>screen_recorder</title>
    <g id="screen_recorder" stroke="none" stroke-width="1" fill="none" fill-rule="evenodd">
        <text id="🎥" font-family="AppleColorEmoji, Apple Color Emoji" font-size="120" font-weight="normal" fill-rule="nonzero" fill="black">
            <tspan x="14" y="130">🎥</tspan>
        </text>
        <path id="ScreenRecorder" fill="#607D8B" fill-rule="nonzero" d="M196.392011,133.573778 C218.124945,133.573778 230.99425,123.730038 231.079478,107.153349 C230.99425,93.2187031 221.576646,84.6959839 204.360753,80.9033739 L196.86076,79.1988301 C188.934631,77.4942862 183.906227,74.8522433 184.076682,69.6533846 C184.119295,64.8806619 188.2102,61.4289607 196.392011,61.4289607 C204.616435,61.4289607 209.133476,65.1363435 209.687453,71.3579285 L229.886297,71.3579285 C229.715843,55.0369213 216.718696,44 196.434624,44 C176.491462,44 162.13068,54.8664669 162.258521,71.1022469 C162.215907,84.3550752 171.505671,91.8124544 186.590884,95.2641557 L195.710193,97.3948354 C205.298252,99.6107424 209.602225,102.210172 209.687453,107.110735 C209.602225,112.437435 204.616435,116.144818 196.136329,116.144818 C186.803952,116.144818 180.667594,111.798231 180.198844,103.403352 L160,103.403352 C160.255682,123.815265 174.446009,133.573778 196.392011,133.573778 Z M272.329514,133.701619 C290.738587,133.701619 302.159031,123.005606 302.713008,106.81244 L283.238594,106.81244 C282.47155,113.758456 278.295417,117.551066 272.585195,117.551066 C265.255657,117.551066 260.482934,111.372095 260.482934,99.7385832 C260.482934,88.1902988 265.298271,82.0113274 272.585195,82.0113274 C278.551099,82.0113274 282.428936,86.059619 283.238594,92.7499535 L302.713008,92.7499535 C302.244258,76.6420143 290.482906,66.1590698 272.2869,66.1590698 C251.704534,66.1590698 239.261364,79.8806476 239.261364,99.9516512 C239.261364,119.937428 251.619306,133.701619 272.329514,133.701619 Z M334.247137,132.465825 L334.247137,96.9260859 C334.247137,89.1277979 339.786904,83.8863256 347.244284,83.8863256 C349.715872,83.8863256 353.423255,84.3124616 355.426094,84.9942791 L355.426094,66.8835009 C353.678936,66.4147514 351.505643,66.1164562 349.588031,66.1164562 C342.428947,66.1164562 336.718725,70.2925886 334.332364,78.9431485 L333.650546,78.9431485 L333.650546,67.0113417 L313.409089,67.0113417 L313.409089,132.465825 L334.247137,132.465825 Z M391.136332,133.701619 C408.309611,133.701619 419.602214,125.391968 421.988575,112.522662 L402.855071,111.968685 C401.235754,116.315272 396.974395,118.65902 391.519854,118.65902 C383.508498,118.65902 378.565321,113.33232 378.565321,105.320964 L378.565321,104.766988 L422.201643,104.766988 L422.201643,99.5681288 C422.201643,78.0056494 409.076656,66.1590698 390.497128,66.1590698 C370.72442,66.1590698 358.025568,79.7101932 358.025568,99.9942648 C358.025568,120.960154 370.553965,133.701619 391.136332,133.701619 Z M402.812457,92.6647263 L378.565321,92.6647263 C378.863616,86.1448462 384.019862,81.2016691 390.923264,81.2016691 C397.784053,81.2016691 402.72723,85.9743918 402.812457,92.6647263 Z M463.494287,133.701619 C480.667566,133.701619 491.960169,125.391968 494.34653,112.522662 L475.213025,111.968685 C473.593709,116.315272 469.332349,118.65902 463.877809,118.65902 C455.866453,118.65902 450.923276,113.33232 450.923276,105.320964 L450.923276,104.766988 L494.559598,104.766988 L494.559598,99.5681288 C494.559598,78.0056494 481.43461,66.1590698 462.855083,66.1590698 C443.082374,66.1590698 430.383523,79.7101932 430.383523,99.9942648 C430.383523,120.960154 442.91192,133.701619 463.494287,133.701619 Z M475.170412,92.6647263 L450.923276,92.6647263 C451.221571,86.1448462 456.377816,81.2016691 463.281219,81.2016691 C470.142008,81.2016691 475.085185,85.9743918 475.170412,92.6647263 Z M526.093728,132.465825 L526.093728,95.1363149 C526.136341,87.6789356 530.482928,83.2471217 537.088035,83.2471217 C543.693143,83.2471217 547.613594,87.5937084 547.57098,94.8380197 L547.57098,132.465825 L568.409179,132.465825 L568.409179,90.7471145 C568.451642,76.0028104 559.460173,66.1590698 545.695982,66.1590698 C536.022696,66.1590698 528.693157,71.0596333 525.795433,79.0283757 L525.071001,79.0283757 L525.071001,67.0113417 L505.255679,67.0113417 L505.255679,132.465825 L526.093728,132.465825 Z M628.281227,132.465825 L628.281227,102.593694 L639.105081,102.593694 L655.042566,132.465825 L678.053907,132.465825 L659.943129,99.2272201 C669.531188,94.8806333 675.070956,86.3153006 675.070956,74.255653 C675.070956,56.3153292 662.840854,45.1931807 643.2386,45.1931807 L607.187498,45.1931807 L607.187498,132.465825 L628.281227,132.465825 Z M638.678945,85.9743918 L628.281227,85.9743918 L628.281227,62.1960054 L638.678945,62.1960054 C648.139163,62.1960054 653.210181,66.1590698 653.210181,74.255653 C653.210181,82.3522362 648.139163,85.9743918 638.678945,85.9743918 Z M715.980082,133.701619 C733.153361,133.701619 744.445964,125.391968 746.832325,112.522662 L727.698821,111.968685 C726.079504,116.315272 721.818145,118.65902 716.363604,118.65902 C708.352248,118.65902 703.409071,113.33232 703.409071,105.320964 L703.409071,104.766988 L747.045393,104.766988 L747.045393,99.5681288 C747.045393,78.0056494 733.920406,66.1590698 715.340878,66.1590698 C695.56817,66.1590698 682.869318,79.7101932 682.869318,99.9942648 C682.869318,120.960154 695.397715,133.701619 715.980082,133.701619 Z M727.656207,92.6647263 L703.409071,92.6647263 C703.707366,86.1448462 708.863612,81.2016691 715.767014,81.2016691 C722.627803,81.2016691 727.57098,85.9743918 727.656207,92.6647263 Z M788.295423,133.701619 C806.704496,133.701619 818.12494,123.005606 818.678917,106.81244 L799.204504,106.81244 C798.437459,113.758456 794.261326,117.551066 788.551105,117.551066 C781.221566,117.551066 776.448843,111.372095 776.448843,99.7385832 C776.448843,88.1902988 781.26418,82.0113274 788.551105,82.0113274 C794.517008,82.0113274 798.394845,86.059619 799.204504,92.7499535 L818.678917,92.7499535 C818.210167,76.6420143 806.448815,66.1590698 788.252809,66.1590698 C767.670443,66.1590698 755.227273,79.8806476 755.227273,99.9516512 C755.227273,119.937428 767.585215,133.701619 788.295423,133.701619 Z M859.928946,133.701619 C880.511312,133.701619 892.997096,120.107882 892.997096,99.9516512 C892.997096,79.7528068 880.511312,66.1590698 859.928946,66.1590698 C839.346579,66.1590698 826.860795,79.7528068 826.860795,99.9516512 C826.860795,120.107882 839.346579,133.701619 859.928946,133.701619 Z M860.056787,117.977202 C852.343726,117.977202 848.082366,110.647664 848.082366,99.8238104 C848.082366,88.9573435 852.343726,81.5851914 860.056787,81.5851914 C867.514166,81.5851914 871.775525,88.9573435 871.775525,99.8238104 C871.775525,110.647664 867.514166,117.977202 860.056787,117.977202 Z M924.531228,132.465825 L924.531228,96.9260859 C924.531228,89.1277979 930.070995,83.8863256 937.528374,83.8863256 C939.999963,83.8863256 943.707346,84.3124616 945.710185,84.9942791 L945.710185,66.8835009 C943.963027,66.4147514 941.789734,66.1164562 939.872122,66.1164562 C932.713038,66.1164562 927.002816,70.2925886 924.616455,78.9431485 L923.934637,78.9431485 L923.934637,67.0113417 L903.693179,67.0113417 L903.693179,132.465825 L924.531228,132.465825 Z M974.730088,133.403324 C984.616443,133.403324 990.497119,127.90617 993.139162,121.855039 L993.778366,121.855039 L993.778366,132.465825 L1014.40335,132.465825 L1014.40335,45.1931807 L993.565298,45.1931807 L993.565298,78.2187174 L993.139162,78.2187174 C990.667573,72.2102004 984.957351,66.1590698 974.644861,66.1590698 C960.965897,66.1590698 948.565341,76.6846279 948.565341,99.7811968 C948.565341,122.068107 960.284079,133.403324 974.730088,133.403324 Z M981.9744,117.167544 C974.261339,117.167544 969.957366,110.306755 969.957366,99.7385832 C969.957366,89.2130251 974.218725,82.4374633 981.9744,82.4374633 C989.602233,82.4374633 994.034047,89.0425707 994.034047,99.7385832 C994.034047,110.349369 989.55962,117.167544 981.9744,117.167544 Z M1058.2102,133.701619 C1075.38347,133.701619 1086.67608,125.391968 1089.06244,112.522662 L1069.92893,111.968685 C1068.30962,116.315272 1064.04826,118.65902 1058.59372,118.65902 C1050.58236,118.65902 1045.63918,113.33232 1045.63918,105.320964 L1045.63918,104.766988 L1089.27551,104.766988 L1089.27551,99.5681288 C1089.27551,78.0056494 1076.15052,66.1590698 1057.57099,66.1590698 C1037.79828,66.1590698 1025.09943,79.7101932 1025.09943,99.9942648 C1025.09943,120.960154 1037.62783,133.701619 1058.2102,133.701619 Z M1069.88632,92.6647263 L1045.63918,92.6647263 C1045.93748,86.1448462 1051.09373,81.2016691 1057.99713,81.2016691 C1064.85792,81.2016691 1069.80109,85.9743918 1069.88632,92.6647263 Z M1120.80964,132.465825 L1120.80964,96.9260859 C1120.80964,89.1277979 1126.3494,83.8863256 1133.80678,83.8863256 C1136.27837,83.8863256 1139.98575,84.3124616 1141.98859,84.9942791 L1141.98859,66.8835009 C1140.24144,66.4147514 1138.06814,66.1164562 1136.15053,66.1164562 C1128.99145,66.1164562 1123.28123,70.2925886 1120.89486,78.9431485 L1120.21305,78.9431485 L1120.21305,67.0113417 L1099.97159,67.0113417 L1099.97159,132.465825 L1120.80964,132.465825 Z"></path>
    </g>
</svg>